<?xml version="1.0" encoding="UTF-8"?>
<!DOCTYPE svg PUBLIC "-//W3C//DTD SVG 1.1//EN" "http://www.w3.org/Graphics/SVG/1.1/DTD/svg11.dtd">
<svg xmlns="http://www.w3.org/2000/svg" version="1.1" width="833px" height="833px" style="shape-rendering:geometricPrecision; text-rendering:geometricPrecision; image-rendering:optimizeQuality; fill-rule:evenodd; clip-rule:evenodd" xmlns:xlink="http://www.w3.org/1999/xlink">
<g><path style="opacity:1" fill="#fefefe" d="M -0.5,-0.5 C 277.167,-0.5 554.833,-0.5 832.5,-0.5C 832.5,277.167 832.5,554.833 832.5,832.5C 554.833,832.5 277.167,832.5 -0.5,832.5C -0.5,554.833 -0.5,277.167 -0.5,-0.5 Z"/></g>
<g><path style="opacity:1" fill="#727071" d="M 670.5,253.5 C 661.515,251.606 654.182,254.273 648.5,261.5C 645.232,262.487 641.898,262.82 638.5,262.5C 635.907,256.177 631.574,251.344 625.5,248C 624.207,247.51 622.873,247.343 621.5,247.5C 618.415,246.607 615.248,245.94 612,245.5C 610.5,245.667 609,245.833 607.5,246C 606.154,247.669 604.487,248.836 602.5,249.5C 588.759,225.689 575.259,201.689 562,177.5C 559.31,173.31 555.81,169.976 551.5,167.5C 550.28,167.887 549.613,168.72 549.5,170C 552.303,178.775 555.803,187.275 560,195.5C 575.627,224.587 591.127,253.754 606.5,283C 601.287,291.256 596.454,299.756 592,308.5C 589.768,315.326 588.435,322.326 588,329.5C 587.076,352.533 587.409,375.533 589,398.5C 589.926,403.279 591.259,407.946 593,412.5C 598.922,423.343 604.589,434.343 610,445.5C 612.492,452.961 613.826,460.628 614,468.5C 614.777,485.855 614.444,503.189 613,520.5C 611.843,532.148 607.01,541.814 598.5,549.5C 597.693,540.244 597.193,530.91 597,521.5C 596.443,517.406 595.61,513.406 594.5,509.5C 596.41,508.025 597.576,506.025 598,503.5C 599.259,463.842 585.426,430.342 556.5,403C 523.93,380.524 487.93,371.524 448.5,376C 437.461,378.902 426.628,382.402 416,386.5C 407.46,383.815 398.96,380.981 390.5,378C 350.312,369.972 313.312,377.305 279.5,400C 251.57,424.361 236.236,455.195 233.5,492.5C 233.935,500.377 235.435,508.044 238,515.5C 238.278,514.584 238.778,513.918 239.5,513.5C 238.974,525.011 239.974,536.344 242.5,547.5C 239.022,547.816 235.688,547.316 232.5,546C 224.456,539.413 219.956,530.913 219,520.5C 216.718,497.446 217.052,474.446 220,451.5C 221,448.5 222,445.5 223,442.5C 228.333,432.5 233.667,422.5 239,412.5C 241.814,405.429 243.481,398.096 244,390.5C 244.667,370.167 244.667,349.833 244,329.5C 243.458,321.625 241.958,313.959 239.5,306.5C 240.458,306.047 241.292,305.381 242,304.5C 242.691,306.891 243.691,306.891 245,304.5C 245.333,305.167 245.667,305.833 246,306.5C 249.052,304.149 252.219,303.982 255.5,306C 259.172,313.757 265.339,317.59 274,317.5C 289.461,313.814 305.128,311.148 321,309.5C 323.609,309.838 325.776,310.838 327.5,312.5C 330.054,311.403 332.221,312.07 334,314.5C 337.151,313.91 339.484,315.244 341,318.5C 342.525,317.28 344.359,316.613 346.5,316.5C 356.185,319.614 365.519,318.947 374.5,314.5C 379.835,310.192 382.502,304.525 382.5,297.5C 381.825,294.309 380.658,291.309 379,288.5C 378.409,281.435 377.409,274.435 376,267.5C 358.554,235.865 331.721,223.365 295.5,230C 283.994,232.259 272.994,235.925 262.5,241C 245.897,258.695 242.23,278.861 251.5,301.5C 247.486,301.334 243.486,301.501 239.5,302C 238.748,302.671 238.414,303.504 238.5,304.5C 234.318,297.314 229.985,290.147 225.5,283C 242.794,250.245 259.961,217.412 277,184.5C 279.589,179.416 280.922,174.082 281,168.5C 280.282,167.549 279.449,167.383 278.5,168C 273.494,172.526 269.327,177.693 266,183.5C 253.075,207.023 239.908,230.356 226.5,253.5C 221.301,248.284 214.967,246.451 207.5,248C 199.201,251.641 192.867,257.308 188.5,265C 181.978,266.819 178.478,264.319 178,257.5C 173.251,252.21 167.418,249.21 160.5,248.5C 154.96,233.008 150.96,217.008 148.5,200.5C 149.501,192.657 153.501,186.824 160.5,183C 166.93,179.451 173.596,176.451 180.5,174C 212.032,163.045 244.032,153.711 276.5,146C 280.5,145.333 284.5,145.333 288.5,146C 294.016,148.589 299.016,151.922 303.5,156C 310.532,162.697 317.198,169.697 323.5,177C 339.796,174.476 356.129,171.81 372.5,169C 417.538,163.09 462.038,165.923 506,177.5C 506.833,177.333 507.667,177.167 508.5,177C 516.5,167.667 525.167,159 534.5,151C 538.402,147.633 542.902,145.466 548,144.5C 583.481,152.412 618.315,162.579 652.5,175C 660.414,177.75 668.081,181.083 675.5,185C 677.956,187.408 679.789,190.241 681,193.5C 681.667,199.5 681.667,205.5 681,211.5C 678.122,225.677 674.622,239.677 670.5,253.5 Z"/></g>
<g><path style="opacity:1" fill="#696768" d="M 327.5,312.5 C 325.776,310.838 323.609,309.838 321,309.5C 305.128,311.148 289.461,313.814 274,317.5C 265.339,317.59 259.172,313.757 255.5,306C 252.219,303.982 249.052,304.149 246,306.5C 245.667,305.833 245.333,305.167 245,304.5C 243.691,306.891 242.691,306.891 242,304.5C 241.292,305.381 240.458,306.047 239.5,306.5C 238.662,306.158 238.328,305.492 238.5,304.5C 238.414,303.504 238.748,302.671 239.5,302C 243.486,301.501 247.486,301.334 251.5,301.5C 242.23,278.861 245.897,258.695 262.5,241C 272.994,235.925 283.994,232.259 295.5,230C 331.721,223.365 358.554,235.865 376,267.5C 377.409,274.435 378.409,281.435 379,288.5C 380.658,291.309 381.825,294.309 382.5,297.5C 382.502,304.525 379.835,310.192 374.5,314.5C 365.519,318.947 356.185,319.614 346.5,316.5C 344.359,316.613 342.525,317.28 341,318.5C 339.484,315.244 337.151,313.91 334,314.5C 332.221,312.07 330.054,311.403 327.5,312.5 Z"/></g>
<g><path style="opacity:1" fill="#050505" d="M 349.5,245.5 C 354.427,250.089 359.427,254.756 364.5,259.5C 367.167,263.501 369.334,267.834 371,272.5C 371.304,281.347 371.804,290.18 372.5,299C 372.649,304.681 369.982,308.181 364.5,309.5C 368.534,278.733 356.534,256.9 328.5,244C 306.278,237.963 287.445,243.463 272,260.5C 265.395,267.108 260.395,274.774 257,283.5C 255.833,287.667 257.333,289.167 261.5,288C 263.691,285.476 266.191,283.309 269,281.5C 271.425,282.261 272.758,283.928 273,286.5C 272.726,294.158 272.226,301.825 271.5,309.5C 269.801,309.66 268.134,309.494 266.5,309C 265.837,307.482 264.837,306.315 263.5,305.5C 262.391,305.443 261.391,305.11 260.5,304.5C 257.776,298.094 255.61,291.427 254,284.5C 253.333,279.167 253.333,273.833 254,268.5C 257.185,257.862 263.351,249.528 272.5,243.5C 292.863,234.6 313.863,233.1 335.5,239C 340.068,241.452 344.735,243.618 349.5,245.5 Z"/></g>
<g><path style="opacity:1" fill="#fefefe" d="M 364.5,309.5 C 363.292,310.234 361.959,310.567 360.5,310.5C 356.361,306.532 352.027,302.699 347.5,299C 339.135,294.162 330.135,292.329 320.5,293.5C 311.906,292.936 303.573,294.103 295.5,297C 288.095,301.026 281.095,305.526 274.5,310.5C 273.391,310.443 272.391,310.11 271.5,309.5C 272.226,301.825 272.726,294.158 273,286.5C 272.758,283.928 271.425,282.261 269,281.5C 266.191,283.309 263.691,285.476 261.5,288C 257.333,289.167 255.833,287.667 257,283.5C 260.395,274.774 265.395,267.108 272,260.5C 287.445,243.463 306.278,237.963 328.5,244C 356.534,256.9 368.534,278.733 364.5,309.5 Z"/></g>
<g><path style="opacity:1" fill="#4a4949" d="M 370.5,264.5 C 367.865,263.42 365.865,261.754 364.5,259.5C 359.427,254.756 354.427,250.089 349.5,245.5C 345.71,242.659 341.71,239.993 337.5,237.5C 327.657,235.059 317.657,234.059 307.5,234.5C 301.5,234.667 295.5,234.833 289.5,235C 284.195,236.888 279.028,239.055 274,241.5C 272.97,241.836 272.47,242.503 272.5,243.5C 263.351,249.528 257.185,257.862 254,268.5C 253.333,273.833 253.333,279.167 254,284.5C 255.61,291.427 257.776,298.094 260.5,304.5C 259.279,303.972 258.113,303.305 257,302.5C 254.197,297.884 252.197,292.884 251,287.5C 250.333,282.167 250.333,276.833 251,271.5C 252.08,261.755 255.913,253.255 262.5,246C 280.59,233.481 300.59,229.148 322.5,233C 328.521,233.871 334.521,234.871 340.5,236C 349.126,241.415 357.46,247.582 365.5,254.5C 367.926,257.437 369.592,260.771 370.5,264.5 Z"/></g>
<g><path style="opacity:1" fill="#2f2e2f" d="M 349.5,245.5 C 344.735,243.618 340.068,241.452 335.5,239C 313.863,233.1 292.863,234.6 272.5,243.5C 272.47,242.503 272.97,241.836 274,241.5C 279.028,239.055 284.195,236.888 289.5,235C 295.5,234.833 301.5,234.667 307.5,234.5C 317.657,234.059 327.657,235.059 337.5,237.5C 341.71,239.993 345.71,242.659 349.5,245.5 Z"/></g>
<g><path style="opacity:1" fill="#030303" d="M 669.5,257.5 C 666.265,269.296 661.931,280.629 656.5,291.5C 650.167,291.5 643.833,291.5 637.5,291.5C 630.587,287.423 624.753,282.09 620,275.5C 614.065,267.954 608.898,259.954 604.5,251.5C 609.043,248.609 614.043,247.776 619.5,249C 625.446,254.946 631.446,260.946 637.5,267C 641.541,267.827 645.541,267.66 649.5,266.5C 652.651,263.85 655.651,261.016 658.5,258C 662.123,256.282 665.789,256.116 669.5,257.5 Z"/></g>
<g><path style="opacity:1" fill="#020202" d="M 161.5,252.5 C 165.664,252.143 168.831,253.81 171,257.5C 172,260.167 173,262.833 174,265.5C 176.158,266.826 177.992,268.493 179.5,270.5C 185.249,272.545 189.916,271.212 193.5,266.5C 197.998,262.17 202.665,258.003 207.5,254C 211.167,253.333 214.833,253.333 218.5,254C 220.07,255.397 221.404,256.897 222.5,258.5C 215.585,271.587 206.585,283.087 195.5,293C 186.524,297.765 179.358,295.932 174,287.5C 168.692,276.222 164.525,264.555 161.5,252.5 Z"/></g>
<g><path style="opacity:1" fill="#2f2e2f" d="M 224.5,255.5 C 224.573,257.027 223.906,258.027 222.5,258.5C 221.404,256.897 220.07,255.397 218.5,254C 214.833,253.333 211.167,253.333 207.5,254C 202.665,258.003 197.998,262.17 193.5,266.5C 197.851,258.642 204.351,253.642 213,251.5C 217.439,251.535 221.272,252.868 224.5,255.5 Z"/></g>
<g><path style="opacity:1" fill="#5e5c5d" d="M 621.5,247.5 C 622.873,247.343 624.207,247.51 625.5,248C 631.574,251.344 635.907,256.177 638.5,262.5C 641.898,262.82 645.232,262.487 648.5,261.5C 654.182,254.273 661.515,251.606 670.5,253.5C 670.167,254.167 669.833,254.833 669.5,255.5C 666.257,254.42 662.924,254.253 659.5,255C 655.239,257.587 651.239,260.587 647.5,264C 645.167,264.667 642.833,264.667 640.5,264C 632.441,260.437 626.107,254.937 621.5,247.5 Z"/></g>
<g><path style="opacity:1" fill="#5b595a" d="M 226.5,253.5 C 226.167,254.5 225.5,255.167 224.5,255.5C 221.272,252.868 217.439,251.535 213,251.5C 204.351,253.642 197.851,258.642 193.5,266.5C 189.543,269.044 185.209,269.877 180.5,269C 179.527,266.453 177.693,264.953 175,264.5C 173.511,256.175 168.678,251.508 160.5,250.5C 160.5,249.833 160.5,249.167 160.5,248.5C 167.418,249.21 173.251,252.21 178,257.5C 178.478,264.319 181.978,266.819 188.5,265C 192.867,257.308 199.201,251.641 207.5,248C 214.967,246.451 221.301,248.284 226.5,253.5 Z"/></g>
<g><path style="opacity:1" fill="#403f40" d="M 621.5,247.5 C 626.107,254.937 632.441,260.437 640.5,264C 642.833,264.667 645.167,264.667 647.5,264C 651.239,260.587 655.239,257.587 659.5,255C 662.924,254.253 666.257,254.42 669.5,255.5C 669.5,256.167 669.5,256.833 669.5,257.5C 665.789,256.116 662.123,256.282 658.5,258C 655.651,261.016 652.651,263.85 649.5,266.5C 645.541,267.66 641.541,267.827 637.5,267C 631.446,260.946 625.446,254.946 619.5,249C 614.043,247.776 609.043,248.609 604.5,251.5C 603.5,251.167 602.833,250.5 602.5,249.5C 604.487,248.836 606.154,247.669 607.5,246C 609,245.833 610.5,245.667 612,245.5C 615.248,245.94 618.415,246.607 621.5,247.5 Z"/></g>
<g><path style="opacity:1" fill="#323131" d="M 160.5,250.5 C 168.678,251.508 173.511,256.175 175,264.5C 177.693,264.953 179.527,266.453 180.5,269C 185.209,269.877 189.543,269.044 193.5,266.5C 189.916,271.212 185.249,272.545 179.5,270.5C 177.992,268.493 176.158,266.826 174,265.5C 173,262.833 172,260.167 171,257.5C 168.831,253.81 165.664,252.143 161.5,252.5C 160.662,252.158 160.328,251.492 160.5,250.5 Z"/></g>
<g><path style="opacity:1" fill="#3d3b3c" d="M 637.5,291.5 C 643.833,291.5 650.167,291.5 656.5,291.5C 655.071,294.748 652.571,296.081 649,295.5C 644.632,295.434 640.798,294.101 637.5,291.5 Z"/></g>
<g><path style="opacity:1" fill="#050505" d="M 360.5,310.5 C 350.71,309.568 341.044,307.901 331.5,305.5C 314.607,301.725 298.274,303.225 282.5,310C 279.854,310.497 277.187,310.664 274.5,310.5C 281.095,305.526 288.095,301.026 295.5,297C 303.573,294.103 311.906,292.936 320.5,293.5C 330.135,292.329 339.135,294.162 347.5,299C 352.027,302.699 356.361,306.532 360.5,310.5 Z"/></g>
<g><path style="opacity:1" fill="#494748" d="M 375.5,295.5 C 377.707,301.498 376.374,306.665 371.5,311C 358.915,314.627 346.582,313.961 334.5,309C 317.887,306.14 301.553,307.14 285.5,312C 278.633,313.034 271.967,312.367 265.5,310C 263.963,308.89 263.297,307.39 263.5,305.5C 264.837,306.315 265.837,307.482 266.5,309C 268.134,309.494 269.801,309.66 271.5,309.5C 272.391,310.11 273.391,310.443 274.5,310.5C 277.187,310.664 279.854,310.497 282.5,310C 298.274,303.225 314.607,301.725 331.5,305.5C 343.209,311.336 355.542,312.836 368.5,310C 373.423,306.323 375.756,301.49 375.5,295.5 Z"/></g>
<g><path style="opacity:1" fill="#302f2f" d="M 364.5,259.5 C 365.865,261.754 367.865,263.42 370.5,264.5C 372.162,272.688 372.996,281.021 373,289.5C 374.559,291.217 375.392,293.217 375.5,295.5C 375.756,301.49 373.423,306.323 368.5,310C 355.542,312.836 343.209,311.336 331.5,305.5C 341.044,307.901 350.71,309.568 360.5,310.5C 361.959,310.567 363.292,310.234 364.5,309.5C 369.982,308.181 372.649,304.681 372.5,299C 371.804,290.18 371.304,281.347 371,272.5C 369.334,267.834 367.167,263.501 364.5,259.5 Z"/></g>
<g><path style="opacity:1" fill="#656263" d="M 510.5,232.5 C 524.532,232.209 538.532,232.709 552.5,234C 555.167,235.333 557.833,236.667 560.5,238C 562.607,239.264 563.607,241.097 563.5,243.5C 565.39,243.297 566.89,243.963 568,245.5C 569.333,248.167 570.667,250.833 572,253.5C 581.249,268.277 583.749,284.277 579.5,301.5C 576.677,308.676 571.677,313.843 564.5,317C 557.5,317.667 550.5,317.667 543.5,317C 532.644,312.632 522.144,307.798 512,302.5C 506.787,302.685 502.287,304.518 498.5,308C 493.628,309.103 488.962,310.77 484.5,313C 479.431,313.425 474.431,314.259 469.5,315.5C 465.026,314.928 461.026,313.262 457.5,310.5C 456.548,308.955 456.215,307.288 456.5,305.5C 453.95,305.439 452.45,304.106 452,301.5C 451.333,297.5 451.333,293.5 452,289.5C 454.504,282.319 456.504,274.986 458,267.5C 464.935,254.06 475.435,244.727 489.5,239.5C 491.123,240.476 492.457,239.976 493.5,238C 499.249,236.027 504.916,234.194 510.5,232.5 Z"/></g>
<g><path style="opacity:1" fill="#3b393a" d="M 548.5,239.5 C 546.571,239.769 544.905,239.269 543.5,238C 530.833,237.333 518.167,237.333 505.5,238C 503.212,238.822 500.878,239.489 498.5,240C 497.044,241.745 495.711,243.578 494.5,245.5C 489.581,247.595 484.581,249.428 479.5,251C 463.724,263.722 456.558,280.222 458,300.5C 459.718,305.052 462.885,308.052 467.5,309.5C 467.735,310.097 468.235,310.43 469,310.5C 470.406,309.586 471.906,308.92 473.5,308.5C 482.331,305.499 490.997,301.999 499.5,298C 506.167,296 512.833,296 519.5,298C 523.358,302.179 528.025,305.179 533.5,307C 541.346,309.24 549.346,310.407 557.5,310.5C 558.609,310.443 559.609,310.11 560.5,309.5C 562.951,308.106 565.618,307.272 568.5,307C 569.727,304.438 571.394,302.272 573.5,300.5C 571.975,306.787 567.975,310.621 561.5,312C 559.167,312.167 556.833,312.333 554.5,312.5C 546.157,311.166 537.824,309.666 529.5,308C 524.975,304.878 520.309,302.044 515.5,299.5C 513.529,299.004 511.529,298.67 509.5,298.5C 498.547,301.805 487.881,305.972 477.5,311C 463.271,312.932 455.937,306.766 455.5,292.5C 456.059,274.961 463.059,260.794 476.5,250C 478.5,248.667 480.5,247.333 482.5,246C 485.232,245.587 487.899,244.92 490.5,244C 494.589,240.905 498.923,238.239 503.5,236C 517.88,235.089 532.214,235.422 546.5,237C 547.381,237.708 548.047,238.542 548.5,239.5 Z"/></g>
<g><path style="opacity:1" fill="#030303" d="M 573.5,288.5 C 573.5,291.5 573.5,294.5 573.5,297.5C 573.5,298.5 573.5,299.5 573.5,300.5C 571.394,302.272 569.727,304.438 568.5,307C 565.618,307.272 562.951,308.106 560.5,309.5C 560.38,303.114 559.714,296.781 558.5,290.5C 559.652,279.892 563.319,278.892 569.5,287.5C 570.736,288.246 572.07,288.579 573.5,288.5 Z"/></g>
<g><path style="opacity:1" fill="#383637" d="M 548.5,239.5 C 551.426,240.461 554.426,241.127 557.5,241.5C 559.671,246.515 563.171,250.515 568,253.5C 569.461,258.419 571.461,263.086 574,267.5C 576.559,276.387 577.059,285.387 575.5,294.5C 575.36,296.03 574.693,297.03 573.5,297.5C 573.5,294.5 573.5,291.5 573.5,288.5C 574.993,287.688 575.66,286.355 575.5,284.5C 575.272,282.793 574.938,281.126 574.5,279.5C 572.318,261.769 563.652,248.435 548.5,239.5 Z"/></g>
<g><path style="opacity:1" fill="#fefefe" d="M 574.5,279.5 C 574.938,281.126 575.272,282.793 575.5,284.5C 575.66,286.355 574.993,287.688 573.5,288.5C 572.07,288.579 570.736,288.246 569.5,287.5C 563.319,278.892 559.652,279.892 558.5,290.5C 559.714,296.781 560.38,303.114 560.5,309.5C 559.609,310.11 558.609,310.443 557.5,310.5C 543.775,299.196 527.942,292.863 510,291.5C 502.119,291.262 494.953,293.429 488.5,298C 483.434,301.522 478.434,305.022 473.5,308.5C 471.906,308.92 470.406,309.586 469,310.5C 468.235,310.43 467.735,310.097 467.5,309.5C 463.708,285.698 471.041,266.198 489.5,251C 505.576,241.042 522.576,239.042 540.5,245C 553.401,255.067 564.734,266.567 574.5,279.5 Z"/></g>
<g><path style="opacity:1" fill="#090909" d="M 557.5,310.5 C 549.346,310.407 541.346,309.24 533.5,307C 528.025,305.179 523.358,302.179 519.5,298C 512.833,296 506.167,296 499.5,298C 490.997,301.999 482.331,305.499 473.5,308.5C 478.434,305.022 483.434,301.522 488.5,298C 494.953,293.429 502.119,291.262 510,291.5C 527.942,292.863 543.775,299.196 557.5,310.5 Z"/></g>
<g><path style="opacity:1" fill="#070607" d="M 548.5,239.5 C 563.652,248.435 572.318,261.769 574.5,279.5C 564.734,266.567 553.401,255.067 540.5,245C 522.576,239.042 505.576,241.042 489.5,251C 471.041,266.198 463.708,285.698 467.5,309.5C 462.885,308.052 459.718,305.052 458,300.5C 456.558,280.222 463.724,263.722 479.5,251C 484.581,249.428 489.581,247.595 494.5,245.5C 495.711,243.578 497.044,241.745 498.5,240C 500.878,239.489 503.212,238.822 505.5,238C 518.167,237.333 530.833,237.333 543.5,238C 544.905,239.269 546.571,239.769 548.5,239.5 Z"/></g>
<g><path style="opacity:1" fill="#fefefe" d="M 327.5,312.5 C 334.81,316.384 339.81,322.384 342.5,330.5C 340.126,339.673 334.459,345.339 325.5,347.5C 316.435,345.603 310.768,340.103 308.5,331C 310.738,320.595 317.071,314.429 327.5,312.5 Z"/></g>
<g><path style="opacity:1" fill="#fefefe" d="M 504.5,312.5 C 520.864,316.564 525.364,326.231 518,341.5C 510.426,350.66 502.759,350.66 495,341.5C 492.637,338.107 490.804,334.44 489.5,330.5C 492.19,322.384 497.19,316.384 504.5,312.5 Z"/></g>
<g><path style="opacity:1" fill="#fefefe" d="M 594.5,509.5 C 591.674,506.516 589.341,503.183 587.5,499.5C 585.316,495.119 582.65,491.119 579.5,487.5C 576.596,481.593 572.263,476.926 566.5,473.5C 565.914,473.709 565.414,474.043 565,474.5C 564.67,477.866 565.003,481.199 566,484.5C 569.221,494.328 571.721,504.328 573.5,514.5C 571.99,523.537 570.324,532.537 568.5,541.5C 564.877,553.687 559.877,565.354 553.5,576.5C 551.135,578.86 548.468,580.86 545.5,582.5C 543.578,580.997 542.412,578.997 542,576.5C 542.259,554.186 533.759,536.02 516.5,522C 514.866,521.506 513.199,521.34 511.5,521.5C 511.5,525.5 511.5,529.5 511.5,533.5C 511.5,534.833 511.5,536.167 511.5,537.5C 510.86,540.865 510.026,544.198 509,547.5C 507.951,548.517 506.784,548.684 505.5,548C 502.112,539.267 496.446,532.267 488.5,527C 470.005,516.92 451.671,506.587 433.5,496C 428.488,492.321 424.154,487.988 420.5,483C 423.029,480.907 425.696,479.074 428.5,477.5C 433.607,474.438 438.607,471.105 443.5,467.5C 446.225,465.278 447.891,462.445 448.5,459C 448.357,456.849 447.357,455.182 445.5,454C 442.05,452.97 438.717,451.637 435.5,450C 431.531,446.53 432.198,443.863 437.5,442C 442.779,440.511 448.112,439.345 453.5,438.5C 464.016,436.458 467.516,430.458 464,420.5C 462,417.334 459.5,414.668 456.5,412.5C 455.833,412.167 455.167,411.833 454.5,411.5C 450.235,406.865 444.902,404.032 438.5,403C 425.504,402.5 412.504,402.333 399.5,402.5C 390.493,401.678 383.159,404.678 377.5,411.5C 373.502,414.665 370.002,418.332 367,422.5C 366.307,430.507 369.807,436.007 377.5,439C 384.576,439.581 391.076,441.747 397,445.5C 397.72,447.112 397.554,448.612 396.5,450C 381.165,453.338 379.499,460.005 391.5,470C 396.898,473.698 402.565,476.864 408.5,479.5C 409.456,480.659 410.456,481.826 411.5,483C 405.386,490.727 398.052,497.06 389.5,502C 372.852,509.987 356.852,518.987 341.5,529C 334,535.167 327.167,542 321,549.5C 320.501,544.511 320.334,539.511 320.5,534.5C 320.5,533.167 320.5,531.833 320.5,530.5C 320.5,529.5 320.5,528.5 320.5,527.5C 320.82,524.102 320.487,520.768 319.5,517.5C 313.186,524.982 306.686,532.315 300,539.5C 292.319,550.213 288.652,562.213 289,575.5C 288.309,578.591 286.476,579.757 283.5,579C 271.654,566.138 264.487,550.971 262,533.5C 259.027,516.087 260.527,499.087 266.5,482.5C 269.045,473.02 266.711,471.353 259.5,477.5C 253.259,484.305 248.259,491.971 244.5,500.5C 242.98,502.89 241.98,505.557 241.5,508.5C 240.069,509.78 239.402,511.447 239.5,513.5C 238.778,513.918 238.278,514.584 238,515.5C 235.435,508.044 233.935,500.377 233.5,492.5C 236.236,455.195 251.57,424.361 279.5,400C 313.312,377.305 350.312,369.972 390.5,378C 398.96,380.981 407.46,383.815 416,386.5C 426.628,382.402 437.461,378.902 448.5,376C 487.93,371.524 523.93,380.524 556.5,403C 585.426,430.342 599.259,463.842 598,503.5C 597.576,506.025 596.41,508.025 594.5,509.5 Z"/></g>
<g><path style="opacity:1" fill="#030202" d="M 399.5,402.5 C 412.504,402.333 425.504,402.5 438.5,403C 444.902,404.032 450.235,406.865 454.5,411.5C 451.448,414.576 448.614,417.91 446,421.5C 444.924,426.072 445.757,430.239 448.5,434C 449.448,434.483 450.448,434.649 451.5,434.5C 452.167,435.833 452.833,437.167 453.5,438.5C 448.112,439.345 442.779,440.511 437.5,442C 432.198,443.863 431.531,446.53 435.5,450C 438.717,451.637 442.05,452.97 445.5,454C 447.357,455.182 448.357,456.849 448.5,459C 447.891,462.445 446.225,465.278 443.5,467.5C 438.607,471.105 433.607,474.438 428.5,477.5C 421.782,477.698 415.115,478.365 408.5,479.5C 402.565,476.864 396.898,473.698 391.5,470C 379.499,460.005 381.165,453.338 396.5,450C 397.554,448.612 397.72,447.112 397,445.5C 391.076,441.747 384.576,439.581 377.5,439C 369.807,436.007 366.307,430.507 367,422.5C 370.002,418.332 373.502,414.665 377.5,411.5C 384.937,408.473 392.27,405.473 399.5,402.5 Z"/></g>
<g><path style="opacity:1" fill="#2b2a2b" d="M 399.5,402.5 C 392.27,405.473 384.937,408.473 377.5,411.5C 383.159,404.678 390.493,401.678 399.5,402.5 Z"/></g>
<g><path style="opacity:1" fill="#6e6c6d" d="M 456.5,412.5 C 459.5,414.668 462,417.334 464,420.5C 467.516,430.458 464.016,436.458 453.5,438.5C 452.833,437.167 452.167,435.833 451.5,434.5C 448.213,429.521 447.713,424.187 450,418.5C 452.832,417.038 454.999,415.038 456.5,412.5 Z"/></g>
<g><path style="opacity:1" fill="#3e3c3d" d="M 454.5,411.5 C 455.167,411.833 455.833,412.167 456.5,412.5C 454.999,415.038 452.832,417.038 450,418.5C 447.713,424.187 448.213,429.521 451.5,434.5C 450.448,434.649 449.448,434.483 448.5,434C 445.757,430.239 444.924,426.072 446,421.5C 448.614,417.91 451.448,414.576 454.5,411.5 Z"/></g>
<g><path style="opacity:1" fill="#020202" d="M 579.5,487.5 C 587.991,506.829 591.991,527.162 591.5,548.5C 590.178,548.33 589.011,548.663 588,549.5C 578.789,579.047 560.956,601.88 534.5,618C 529.728,620.72 524.728,622.887 519.5,624.5C 517.971,624.471 516.804,623.804 516,622.5C 515.667,618.5 515.333,614.5 515,610.5C 514.722,609.584 514.222,608.918 513.5,608.5C 514.467,600.624 516.967,593.291 521,586.5C 524.607,572.595 525.274,558.595 523,544.5C 519.936,539.934 516.102,536.267 511.5,533.5C 511.5,529.5 511.5,525.5 511.5,521.5C 513.199,521.34 514.866,521.506 516.5,522C 533.759,536.02 542.259,554.186 542,576.5C 542.412,578.997 543.578,580.997 545.5,582.5C 548.468,580.86 551.135,578.86 553.5,576.5C 559.834,569.844 564.667,562.178 568,553.5C 568.499,549.514 568.666,545.514 568.5,541.5C 570.324,532.537 571.99,523.537 573.5,514.5C 571.721,504.328 569.221,494.328 566,484.5C 565.003,481.199 564.67,477.866 565,474.5C 565.414,474.043 565.914,473.709 566.5,473.5C 572.263,476.926 576.596,481.593 579.5,487.5 Z"/></g>
<g><path style="opacity:1" fill="#5a5959" d="M 266.5,482.5 C 265.033,479.71 262.7,478.044 259.5,477.5C 266.711,471.353 269.045,473.02 266.5,482.5 Z"/></g>
<g><path style="opacity:1" fill="#020202" d="M 259.5,477.5 C 262.7,478.044 265.033,479.71 266.5,482.5C 260.527,499.087 259.027,516.087 262,533.5C 264.487,550.971 271.654,566.138 283.5,579C 286.476,579.757 288.309,578.591 289,575.5C 288.652,562.213 292.319,550.213 300,539.5C 306.686,532.315 313.186,524.982 319.5,517.5C 320.487,520.768 320.82,524.102 320.5,527.5C 317.25,529.243 314.416,531.577 312,534.5C 305.821,546.797 303.821,559.797 306,573.5C 307.129,578.809 308.129,584.143 309,589.5C 309.875,592.401 311.042,595.068 312.5,597.5C 313.988,601.81 315.988,605.81 318.5,609.5C 317.883,609.611 317.383,609.944 317,610.5C 316.87,614.951 316.204,619.284 315,623.5C 312.502,624.598 310.002,624.432 307.5,623C 292.308,615.641 279.308,605.475 268.5,592.5C 262.351,579.863 256.017,567.53 249.5,555.5C 248.65,551.447 247.484,547.447 246,543.5C 243.73,529.206 243.23,514.873 244.5,500.5C 248.259,491.971 253.259,484.305 259.5,477.5 Z"/></g>
<g><path style="opacity:1" fill="#727071" d="M 428.5,477.5 C 425.696,479.074 423.029,480.907 420.5,483C 424.154,487.988 428.488,492.321 433.5,496C 451.671,506.587 470.005,516.92 488.5,527C 496.446,532.267 502.112,539.267 505.5,548C 506.784,548.684 507.951,548.517 509,547.5C 510.026,544.198 510.86,540.865 511.5,537.5C 516.57,540.074 520.07,544.074 522,549.5C 523.197,565.849 520.364,581.349 513.5,596C 512.791,600.506 512.125,605.006 511.5,609.5C 500.091,623.577 487.091,635.91 472.5,646.5C 473.602,636.924 471.935,627.924 467.5,619.5C 476.282,608.264 482.116,595.598 485,581.5C 488.872,557.728 479.706,541.561 457.5,533C 443.377,527.273 429.044,522.106 414.5,517.5C 394.358,523.597 375.358,532.097 357.5,543C 349.435,550.354 345.768,559.521 346.5,570.5C 347.746,588.582 354.079,604.582 365.5,618.5C 362.794,622.268 359.961,625.935 357,629.5C 356.501,634.155 356.334,638.821 356.5,643.5C 345.506,633.839 334.839,623.839 324.5,613.5C 324.819,607.86 322.652,603.527 318,600.5C 314.016,587.544 311.516,574.21 310.5,560.5C 309.371,549.855 312.704,541.189 320.5,534.5C 320.334,539.511 320.501,544.511 321,549.5C 327.167,542 334,535.167 341.5,529C 356.852,518.987 372.852,509.987 389.5,502C 398.052,497.06 405.386,490.727 411.5,483C 410.456,481.826 409.456,480.659 408.5,479.5C 415.115,478.365 421.782,477.698 428.5,477.5 Z"/></g>
<g><path style="opacity:1" fill="#1c1b1b" d="M 579.5,487.5 C 582.65,491.119 585.316,495.119 587.5,499.5C 591.277,515.921 593.277,532.587 593.5,549.5C 592.508,549.672 591.842,549.338 591.5,548.5C 591.991,527.162 587.991,506.829 579.5,487.5 Z"/></g>
<g><path style="opacity:1" fill="#383737" d="M 244.5,500.5 C 243.23,514.873 243.73,529.206 246,543.5C 247.484,547.447 248.65,551.447 249.5,555.5C 247.204,551.131 245.371,546.464 244,541.5C 242.474,530.549 241.641,519.549 241.5,508.5C 241.98,505.557 242.98,502.89 244.5,500.5 Z"/></g>
<g><path style="opacity:1" fill="#fefefe" d="M 467.5,619.5 C 466.833,619.5 466.5,619.833 466.5,620.5C 463.805,623.191 460.805,625.525 457.5,627.5C 456.522,627.023 455.689,626.357 455,625.5C 453.894,621.196 452.894,616.863 452,612.5C 450.612,611.446 449.112,611.28 447.5,612C 441.214,619.408 435.047,626.908 429,634.5C 424.614,639.389 419.78,643.722 414.5,647.5C 403.726,636.615 393.893,624.948 385,612.5C 383.301,611.594 381.467,611.261 379.5,611.5C 379.297,617.054 378.13,622.387 376,627.5C 373.002,625.332 370.169,622.999 367.5,620.5C 367.167,619.5 366.5,618.833 365.5,618.5C 354.079,604.582 347.746,588.582 346.5,570.5C 345.768,559.521 349.435,550.354 357.5,543C 375.358,532.097 394.358,523.597 414.5,517.5C 429.044,522.106 443.377,527.273 457.5,533C 479.706,541.561 488.872,557.728 485,581.5C 482.116,595.598 476.282,608.264 467.5,619.5 Z"/></g>
<g><path style="opacity:1" fill="#565455" d="M 587.5,499.5 C 589.341,503.183 591.674,506.516 594.5,509.5C 595.61,513.406 596.443,517.406 597,521.5C 597.193,530.91 597.693,540.244 598.5,549.5C 596.833,550.833 595.167,550.833 593.5,549.5C 593.277,532.587 591.277,515.921 587.5,499.5 Z"/></g>
<g><path style="opacity:1" fill="#5a5859" d="M 241.5,508.5 C 241.641,519.549 242.474,530.549 244,541.5C 245.371,546.464 247.204,551.131 249.5,555.5C 249.983,564.501 253.483,572.167 260,578.5C 261.136,580.743 261.97,583.076 262.5,585.5C 258.866,581.589 255.699,577.256 253,572.5C 249.197,564.248 245.697,555.915 242.5,547.5C 239.974,536.344 238.974,525.011 239.5,513.5C 239.402,511.447 240.069,509.78 241.5,508.5 Z"/></g>
<g><path style="opacity:1" fill="#3f3e3f" d="M 568.5,541.5 C 568.666,545.514 568.499,549.514 568,553.5C 564.667,562.178 559.834,569.844 553.5,576.5C 559.877,565.354 564.877,553.687 568.5,541.5 Z"/></g>
<g><path style="opacity:1" fill="#302f2f" d="M 320.5,527.5 C 320.5,528.5 320.5,529.5 320.5,530.5C 312.378,535.873 308.211,543.54 308,553.5C 307.588,568.376 309.088,583.043 312.5,597.5C 311.042,595.068 309.875,592.401 309,589.5C 308.129,584.143 307.129,578.809 306,573.5C 303.821,559.797 305.821,546.797 312,534.5C 314.416,531.577 317.25,529.243 320.5,527.5 Z"/></g>
<g><path style="opacity:1" fill="#595758" d="M 320.5,530.5 C 320.5,531.833 320.5,533.167 320.5,534.5C 312.704,541.189 309.371,549.855 310.5,560.5C 311.516,574.21 314.016,587.544 318,600.5C 322.652,603.527 324.819,607.86 324.5,613.5C 322.772,611.774 320.772,610.441 318.5,609.5C 315.988,605.81 313.988,601.81 312.5,597.5C 309.088,583.043 307.588,568.376 308,553.5C 308.211,543.54 312.378,535.873 320.5,530.5 Z"/></g>
<g><path style="opacity:1" fill="#454344" d="M 511.5,533.5 C 516.102,536.267 519.936,539.934 523,544.5C 525.274,558.595 524.607,572.595 521,586.5C 516.967,593.291 514.467,600.624 513.5,608.5C 513.158,609.338 512.492,609.672 511.5,609.5C 512.125,605.006 512.791,600.506 513.5,596C 520.364,581.349 523.197,565.849 522,549.5C 520.07,544.074 516.57,540.074 511.5,537.5C 511.5,536.167 511.5,534.833 511.5,533.5 Z"/></g>
<g><path style="opacity:1" fill="#373536" d="M 249.5,555.5 C 256.017,567.53 262.351,579.863 268.5,592.5C 265.8,590.766 263.8,588.432 262.5,585.5C 261.97,583.076 261.136,580.743 260,578.5C 253.483,572.167 249.983,564.501 249.5,555.5 Z"/></g>
<g><path style="opacity:1" fill="#010101" d="M 466.5,620.5 C 470.665,628.475 471.499,636.809 469,645.5C 467.187,647.761 465.687,650.095 464.5,652.5C 454.922,659.564 444.922,666.064 434.5,672C 424.544,678.476 414.211,679.143 403.5,674C 388.29,666.906 374.29,658.072 361.5,647.5C 359.849,642.96 359.349,638.293 360,633.5C 362.004,628.817 364.504,624.484 367.5,620.5C 370.169,622.999 373.002,625.332 376,627.5C 378.13,622.387 379.297,617.054 379.5,611.5C 381.467,611.261 383.301,611.594 385,612.5C 393.893,624.948 403.726,636.615 414.5,647.5C 419.78,643.722 424.614,639.389 429,634.5C 435.047,626.908 441.214,619.408 447.5,612C 449.112,611.28 450.612,611.446 452,612.5C 452.894,616.863 453.894,621.196 455,625.5C 455.689,626.357 456.522,627.023 457.5,627.5C 460.805,625.525 463.805,623.191 466.5,620.5 Z"/></g>
<g><path style="opacity:1" fill="#474546" d="M 365.5,618.5 C 366.5,618.833 367.167,619.5 367.5,620.5C 364.504,624.484 362.004,628.817 360,633.5C 359.349,638.293 359.849,642.96 361.5,647.5C 359.833,646.167 358.167,644.833 356.5,643.5C 356.334,638.821 356.501,634.155 357,629.5C 359.961,625.935 362.794,622.268 365.5,618.5 Z"/></g>
<g><path style="opacity:1" fill="#373536" d="M 467.5,619.5 C 471.935,627.924 473.602,636.924 472.5,646.5C 469.833,648.5 467.167,650.5 464.5,652.5C 465.687,650.095 467.187,647.761 469,645.5C 471.499,636.809 470.665,628.475 466.5,620.5C 466.5,619.833 466.833,619.5 467.5,619.5 Z"/></g>
</svg>
